<mxfile host="65bd71144e">
    <diagram id="kQHChDqcVhltJAz2fbVM" name="Page-1">
        <mxGraphModel dx="607" dy="606" grid="1" gridSize="10" guides="1" tooltips="1" connect="1" arrows="1" fold="1" page="1" pageScale="1" pageWidth="850" pageHeight="1100" math="0" shadow="0">
            <root>
                <mxCell id="0"/>
                <mxCell id="1" parent="0"/>
                <mxCell id="2" value="" style="ellipse;html=1;shape=endState;fillColor=#000000;strokeColor=#000000;" parent="1" vertex="1">
                    <mxGeometry x="358" y="910" width="30" height="30" as="geometry"/>
                </mxCell>
                <mxCell id="12" style="edgeStyle=none;html=1;" parent="1" source="3" target="4" edge="1">
                    <mxGeometry relative="1" as="geometry"/>
                </mxCell>
                <mxCell id="3" value="" style="ellipse;fillColor=#000000;strokeColor=none;" parent="1" vertex="1">
                    <mxGeometry x="410" y="30" width="30" height="30" as="geometry"/>
                </mxCell>
                <mxCell id="13" style="edgeStyle=none;html=1;" parent="1" source="4" target="6" edge="1">
                    <mxGeometry relative="1" as="geometry"/>
                </mxCell>
                <mxCell id="4" value="Establish connection&amp;nbsp;&lt;br&gt;to indexedDB" style="html=1;align=center;verticalAlign=middle;rounded=0;absoluteArcSize=1;arcSize=10;dashed=0;" parent="1" vertex="1">
                    <mxGeometry x="358" y="80" width="135" height="50" as="geometry"/>
                </mxCell>
                <mxCell id="8" style="edgeStyle=none;html=1;" parent="1" source="6" edge="1">
                    <mxGeometry relative="1" as="geometry">
                        <mxPoint x="530" y="195" as="targetPoint"/>
                    </mxGeometry>
                </mxCell>
                <mxCell id="10" value="success" style="edgeLabel;html=1;align=center;verticalAlign=middle;resizable=0;points=[];" parent="8" vertex="1" connectable="0">
                    <mxGeometry x="-0.5778" y="2" relative="1" as="geometry">
                        <mxPoint x="21" y="2" as="offset"/>
                    </mxGeometry>
                </mxCell>
                <mxCell id="9" style="edgeStyle=none;html=1;" parent="1" source="6" edge="1">
                    <mxGeometry relative="1" as="geometry">
                        <mxPoint x="320" y="195" as="targetPoint"/>
                    </mxGeometry>
                </mxCell>
                <mxCell id="11" value="error" style="edgeLabel;html=1;align=center;verticalAlign=middle;resizable=0;points=[];" parent="9" vertex="1" connectable="0">
                    <mxGeometry x="0.4296" y="1" relative="1" as="geometry">
                        <mxPoint x="24" y="-1" as="offset"/>
                    </mxGeometry>
                </mxCell>
                <mxCell id="6" value="" style="rhombus;" parent="1" vertex="1">
                    <mxGeometry x="410" y="180" width="30" height="30" as="geometry"/>
                </mxCell>
                <mxCell id="14" value="Return error" style="html=1;align=center;verticalAlign=middle;rounded=0;absoluteArcSize=1;arcSize=10;dashed=0;" parent="1" vertex="1">
                    <mxGeometry x="190" y="170" width="135" height="50" as="geometry"/>
                </mxCell>
                <mxCell id="17" style="edgeStyle=none;html=1;entryX=0.5;entryY=0;entryDx=0;entryDy=0;" parent="1" source="15" target="16" edge="1">
                    <mxGeometry relative="1" as="geometry"/>
                </mxCell>
                <mxCell id="15" value="Return IDBDatabase&lt;br&gt;object" style="html=1;align=center;verticalAlign=middle;rounded=0;absoluteArcSize=1;arcSize=10;dashed=0;" parent="1" vertex="1">
                    <mxGeometry x="530" y="170" width="135" height="50" as="geometry"/>
                </mxCell>
                <mxCell id="18" style="edgeStyle=none;html=1;entryX=0;entryY=0.5;entryDx=0;entryDy=0;" parent="1" source="16" target="19" edge="1">
                    <mxGeometry relative="1" as="geometry">
                        <mxPoint x="670" y="265" as="targetPoint"/>
                    </mxGeometry>
                </mxCell>
                <mxCell id="20" value="onupgradeneeded" style="edgeLabel;html=1;align=center;verticalAlign=middle;resizable=0;points=[];" parent="18" vertex="1" connectable="0">
                    <mxGeometry x="-0.2059" relative="1" as="geometry">
                        <mxPoint as="offset"/>
                    </mxGeometry>
                </mxCell>
                <mxCell id="21" style="edgeStyle=none;html=1;entryX=1;entryY=0.5;entryDx=0;entryDy=0;" parent="1" source="16" target="22" edge="1">
                    <mxGeometry relative="1" as="geometry">
                        <mxPoint x="470" y="265" as="targetPoint"/>
                    </mxGeometry>
                </mxCell>
                <mxCell id="23" value="onerror" style="edgeLabel;html=1;align=center;verticalAlign=middle;resizable=0;points=[];" parent="21" vertex="1" connectable="0">
                    <mxGeometry x="0.2398" y="1" relative="1" as="geometry">
                        <mxPoint x="17" y="-1" as="offset"/>
                    </mxGeometry>
                </mxCell>
                <mxCell id="24" style="edgeStyle=none;html=1;" parent="1" source="16" edge="1">
                    <mxGeometry relative="1" as="geometry">
                        <mxPoint x="598" y="340" as="targetPoint"/>
                    </mxGeometry>
                </mxCell>
                <mxCell id="26" value="onsuccess" style="edgeLabel;html=1;align=center;verticalAlign=middle;resizable=0;points=[];" parent="24" vertex="1" connectable="0">
                    <mxGeometry x="-0.3072" y="-1" relative="1" as="geometry">
                        <mxPoint as="offset"/>
                    </mxGeometry>
                </mxCell>
                <mxCell id="16" value="" style="rhombus;" parent="1" vertex="1">
                    <mxGeometry x="582.5" y="250" width="30" height="30" as="geometry"/>
                </mxCell>
                <mxCell id="32" style="edgeStyle=none;html=1;entryX=1;entryY=0.5;entryDx=0;entryDy=0;exitX=0;exitY=0.5;exitDx=0;exitDy=0;" parent="1" source="34" target="25" edge="1">
                    <mxGeometry relative="1" as="geometry">
                        <mxPoint x="817.5" y="410" as="targetPoint"/>
                        <mxPoint x="790" y="320" as="sourcePoint"/>
                        <Array as="points">
                            <mxPoint x="820" y="365"/>
                        </Array>
                    </mxGeometry>
                </mxCell>
                <mxCell id="37" value="success" style="edgeLabel;html=1;align=center;verticalAlign=middle;resizable=0;points=[];" parent="32" vertex="1" connectable="0">
                    <mxGeometry x="0.3983" y="1" relative="1" as="geometry">
                        <mxPoint x="23" y="-1" as="offset"/>
                    </mxGeometry>
                </mxCell>
                <mxCell id="35" style="edgeStyle=none;html=1;entryX=0.5;entryY=0;entryDx=0;entryDy=0;" parent="1" source="19" target="34" edge="1">
                    <mxGeometry relative="1" as="geometry"/>
                </mxCell>
                <mxCell id="36" value="finished" style="edgeLabel;html=1;align=center;verticalAlign=middle;resizable=0;points=[];" parent="35" vertex="1" connectable="0">
                    <mxGeometry x="-0.1667" relative="1" as="geometry">
                        <mxPoint as="offset"/>
                    </mxGeometry>
                </mxCell>
                <mxCell id="19" value="Initialize..." style="html=1;align=center;verticalAlign=middle;rounded=0;absoluteArcSize=1;arcSize=10;dashed=0;" parent="1" vertex="1">
                    <mxGeometry x="750" y="240" width="135" height="50" as="geometry"/>
                </mxCell>
                <mxCell id="22" value="Return error" style="html=1;align=center;verticalAlign=middle;rounded=0;absoluteArcSize=1;arcSize=10;dashed=0;" parent="1" vertex="1">
                    <mxGeometry x="280" y="240" width="135" height="50" as="geometry"/>
                </mxCell>
                <mxCell id="28" style="edgeStyle=none;html=1;entryX=0.5;entryY=0;entryDx=0;entryDy=0;" parent="1" source="25" target="27" edge="1">
                    <mxGeometry relative="1" as="geometry"/>
                </mxCell>
                <mxCell id="25" value="Return IDBDatabase&lt;br&gt;object" style="html=1;align=center;verticalAlign=middle;rounded=0;absoluteArcSize=1;arcSize=10;dashed=0;" parent="1" vertex="1">
                    <mxGeometry x="530" y="340" width="135" height="50" as="geometry"/>
                </mxCell>
                <mxCell id="30" style="edgeStyle=none;html=1;entryX=0.5;entryY=0;entryDx=0;entryDy=0;" parent="1" source="27" target="29" edge="1">
                    <mxGeometry relative="1" as="geometry"/>
                </mxCell>
                <mxCell id="27" value="Create IDBTransaction&lt;br&gt;object" style="html=1;align=center;verticalAlign=middle;rounded=0;absoluteArcSize=1;arcSize=10;dashed=0;" parent="1" vertex="1">
                    <mxGeometry x="530" y="430" width="135" height="50" as="geometry"/>
                </mxCell>
                <mxCell id="41" style="edgeStyle=none;html=1;entryX=0.5;entryY=0;entryDx=0;entryDy=0;" edge="1" parent="1" source="29" target="31">
                    <mxGeometry relative="1" as="geometry">
                        <mxPoint x="460" y="590" as="targetPoint"/>
                        <Array as="points">
                            <mxPoint x="598" y="590"/>
                            <mxPoint x="308" y="590"/>
                        </Array>
                    </mxGeometry>
                </mxCell>
                <mxCell id="42" style="edgeStyle=none;html=1;entryX=0.5;entryY=0;entryDx=0;entryDy=0;" edge="1" parent="1" source="29" target="33">
                    <mxGeometry relative="1" as="geometry">
                        <mxPoint x="598" y="620" as="targetPoint"/>
                        <Array as="points">
                            <mxPoint x="601" y="590"/>
                            <mxPoint x="718" y="590"/>
                        </Array>
                    </mxGeometry>
                </mxCell>
                <mxCell id="44" style="edgeStyle=none;html=1;entryX=0.5;entryY=0;entryDx=0;entryDy=0;" edge="1" parent="1" source="29" target="43">
                    <mxGeometry relative="1" as="geometry">
                        <mxPoint x="597.5" y="610" as="targetPoint"/>
                        <Array as="points">
                            <mxPoint x="595" y="590"/>
                            <mxPoint x="515" y="600"/>
                        </Array>
                    </mxGeometry>
                </mxCell>
                <mxCell id="29" value="" style="rhombus;" parent="1" vertex="1">
                    <mxGeometry x="582.5" y="535" width="30" height="30" as="geometry"/>
                </mxCell>
                <mxCell id="31" value="create an object store" style="html=1;align=center;verticalAlign=middle;rounded=0;absoluteArcSize=1;arcSize=10;dashed=0;" parent="1" vertex="1">
                    <mxGeometry x="240" y="620" width="135" height="50" as="geometry"/>
                </mxCell>
                <mxCell id="33" value="delete an object store" style="html=1;align=center;verticalAlign=middle;rounded=0;absoluteArcSize=1;arcSize=10;dashed=0;" parent="1" vertex="1">
                    <mxGeometry x="650" y="620" width="135" height="50" as="geometry"/>
                </mxCell>
                <mxCell id="38" style="edgeStyle=none;html=1;entryX=0;entryY=0.5;entryDx=0;entryDy=0;" parent="1" source="34" target="39" edge="1">
                    <mxGeometry relative="1" as="geometry">
                        <mxPoint x="960" y="380" as="targetPoint"/>
                    </mxGeometry>
                </mxCell>
                <mxCell id="40" value="failure" style="edgeLabel;html=1;align=center;verticalAlign=middle;resizable=0;points=[];" parent="38" vertex="1" connectable="0">
                    <mxGeometry x="-0.3462" relative="1" as="geometry">
                        <mxPoint x="13" as="offset"/>
                    </mxGeometry>
                </mxCell>
                <mxCell id="34" value="" style="rhombus;" parent="1" vertex="1">
                    <mxGeometry x="802.5" y="350" width="30" height="30" as="geometry"/>
                </mxCell>
                <mxCell id="39" value="Return error" style="html=1;align=center;verticalAlign=middle;rounded=0;absoluteArcSize=1;arcSize=10;dashed=0;" parent="1" vertex="1">
                    <mxGeometry x="910" y="340" width="135" height="50" as="geometry"/>
                </mxCell>
                <mxCell id="43" value="Access an object store" style="html=1;align=center;verticalAlign=middle;rounded=0;absoluteArcSize=1;arcSize=10;dashed=0;" vertex="1" parent="1">
                    <mxGeometry x="447.5" y="620" width="135" height="50" as="geometry"/>
                </mxCell>
                <mxCell id="45" value="" style="ellipse;html=1;shape=endState;fillColor=#000000;strokeColor=#000000;" vertex="1" parent="1">
                    <mxGeometry x="380" y="1020" width="30" height="30" as="geometry"/>
                </mxCell>
                <mxCell id="46" value="Add record" style="html=1;align=center;verticalAlign=middle;rounded=0;absoluteArcSize=1;arcSize=10;dashed=0;" vertex="1" parent="1">
                    <mxGeometry x="170" y="730" width="135" height="50" as="geometry"/>
                </mxCell>
                <mxCell id="47" value="Change record" style="html=1;align=center;verticalAlign=middle;rounded=0;absoluteArcSize=1;arcSize=10;dashed=0;" vertex="1" parent="1">
                    <mxGeometry x="340" y="730" width="135" height="50" as="geometry"/>
                </mxCell>
                <mxCell id="48" value="Delete record" style="html=1;align=center;verticalAlign=middle;rounded=0;absoluteArcSize=1;arcSize=10;dashed=0;" vertex="1" parent="1">
                    <mxGeometry x="530" y="730" width="135" height="50" as="geometry"/>
                </mxCell>
            </root>
        </mxGraphModel>
    </diagram>
</mxfile>